<svg xmlns="http://www.w3.org/2000/svg" viewBox="24 12 304 266" width="1216" height="1064" role="img" aria-label="Grapevine, Smarter Legal Documents"><defs><radialGradient id="gp" cx="38%" cy="32%" r="75%"><stop offset="0" stop-color="#8f70b7"/><stop offset=".42" stop-color="#63408f"/><stop offset="1" stop-color="#3a2261"/></radialGradient><radialGradient id="gh"><stop offset="0" stop-color="#fff" stop-opacity=".7"/><stop offset="1" stop-color="#fff" stop-opacity="0"/></radialGradient><linearGradient id="swoosh" gradientUnits="userSpaceOnUse" x1="150" y1="0" x2="230" y2="0"><stop offset="0" stop-color="#3F444A"/><stop offset="1" stop-color="#7FA744"/></linearGradient></defs><g>
  <!-- outer swoosh: dark on the left, turning green toward the right tip -->
  <path fill="url(#swoosh)" d="M90,94.5 C62,108 46,124 52,140 C60,160 110,181 165,181.5 C215,182 262,160 287,132.5 C262,154 215,176.5 165,177 C116,177.5 70,160 60,141 C54,126 67,108 90,94.5 Z"/>
  <!-- inner dark stroke -->
  <path fill="#3F444A" d="M101.5,96 C80,108 68,124 73,140 C79,155 104,162 131.5,163.5 C108,159.5 87,153 80,140 C75,127 84,110 101.5,96 Z"/>
  <!-- big green swoosh -->
  <path fill="#86AD45" d="M128,169.5 C202,171.5 292,142 299,105 C302,89 285,79 252,74.5 C278,84 287,96 284,110 C276,136 200,164 128,169.5 Z"/>
  <!-- tendril -->
  <path fill="none" stroke="#7FA744" stroke-width="3.2" stroke-linecap="round" d="M168,70 C160,52 150,34 136,30 C124,27 117,37 121,45 C124,51 133,51 134,45 C135,41 131,39 128,41"/>
  <!-- left leaf -->
  <path fill="#8FB046" d="M160,71 C141,53 115,51 96.5,66.5 C118,63.5 140,64.5 160,71 Z"/>
  <path fill="#5F8340" d="M160,71 C140,78 117,76 96.5,66.5 C118,66 140,67 160,71 Z"/>
  <!-- small upper-left leaf -->
  <path fill="#8FB046" d="M166,71 C161,60 155,52 148,48 C152,57 157,64 166,71 Z"/>
  <!-- center leaf -->
  <path fill="#8FB046" d="M176,71 C172,55 175,35 184,23.5 C184,40 181,56 176,71 Z"/>
  <path fill="#6B9140" d="M176,71 C184,58 191,40 184,23.5 C186,40 183,56 176,71 Z"/>
  <!-- right leaf -->
  <path fill="#8FB046" d="M183,72 C195,52 220,38 250,39 C243,44 240,48 244,52 C247,55 252,56 253,64 C230,58 205,62 183,72 Z"/>
  <path fill="#5F8340" d="M183,72 C205,64 230,62 253,64 C245,72 225,78 205,76 C196,75 189,74 183,72 Z"/>
</g>
<circle cx="133.5" cy="96.2" r="16.4" fill="url(#gp)"/><ellipse cx="127.9" cy="89.3" rx="5.9" ry="3.9" transform="rotate(-28 127.9 89.3)" fill="url(#gh)"/><circle cx="170.2" cy="93.7" r="17.2" fill="url(#gp)"/><ellipse cx="164.4" cy="86.5" rx="6.2" ry="4.1" transform="rotate(-28 164.4 86.5)" fill="url(#gh)"/><circle cx="207.2" cy="95.2" r="16.2" fill="url(#gp)"/><ellipse cx="201.7" cy="88.4" rx="5.8" ry="3.9" transform="rotate(-28 201.7 88.4)" fill="url(#gh)"/><circle cx="152.2" cy="122.2" r="15.4" fill="url(#gp)"/><ellipse cx="147.0" cy="115.7" rx="5.5" ry="3.7" transform="rotate(-28 147.0 115.7)" fill="url(#gh)"/><circle cx="188.4" cy="121.8" r="15.7" fill="url(#gp)"/><ellipse cx="183.1" cy="115.2" rx="5.7" ry="3.8" transform="rotate(-28 183.1 115.2)" fill="url(#gh)"/><circle cx="170.8" cy="147.2" r="15.4" fill="url(#gp)"/><ellipse cx="165.6" cy="140.7" rx="5.5" ry="3.7" transform="rotate(-28 165.6 140.7)" fill="url(#gh)"/><g fill="#1c232a" transform="translate(34.883 230.033) scale(0.060374)"><path d="M393.951416015625 9.421630859375Q296.2406005859375 9.421630859375 224.12030029296875 -26.0Q152.0 -61.421630859375 112.735107421875 -130.40948486328125Q73.47021484375 -199.3973388671875 73.47021484375 -298.951416015625Q73.47021484375 -390.6865234375 99.03643798828125 -466.5540771484375Q124.6026611328125 -542.421630859375 173.80133056640625 -598.0662231445312Q223.0 -653.7108154296875 292.83111572265625 -684.0662231445312Q362.6622314453125 -714.421630859375 452.1920166015625 -714.421630859375Q504.324462890625 -714.421630859375 548.74609375 -704.1324462890625Q593.167724609375 -693.84326171875 629.0231323242188 -674.4757080078125Q664.8785400390625 -655.108154296875 689.74609375 -629.373046875L645.5540771484375 -547.459228515625Q603.9757080078125 -585.6402587890625 555.2527465820312 -604.2969970703125Q506.52978515625 -622.9537353515625 446.3487548828125 -622.9537353515625Q363.3001708984375 -622.9537353515625 304.18536376953125 -582.1402587890625Q245.070556640625 -541.3267822265625 213.40167236328125 -469.18768310546875Q181.7327880859375 -397.048583984375 181.7327880859375 -302.5054931640625Q181.7327880859375 -189.5650634765625 239.76922607421875 -135.0948486328125Q297.8056640625 -80.6246337890625 407.324462890625 -80.6246337890625Q452.2406005859375 -80.6246337890625 491.5540771484375 -88.84759521484375Q530.8675537109375 -97.070556640625 567.3134765625 -109.9381103515625L538.6512451171875 -62.010986328125L576.5430908203125 -294.675537109375H405.2891845703125L416.9757080078125 -373.481201171875H675.854248046875L622.7218017578125 -34.84326171875Q593.0352783203125 -21.0 554.981201171875 -11.2891845703125Q516.9271240234375 -1.578369140625 475.794677734375 3.921630859375Q434.6622314453125 9.421630859375 393.951416015625 9.421630859375ZM763.0728759765625 0.0 840.78369140625 -487.5540771484375H939.3597412109375L920.64892578125 -370.7108154296875H910.3597412109375Q928.64892578125 -424.5540771484375 972.7151489257812 -458.62030029296875Q1016.7813720703125 -492.6865234375 1084.64892578125 -497.264892578125L1125.33544921875 -500.264892578125L1124.3597412109375 -413.929443359375L1057.2406005859375 -407.3753662109375Q1007.6136474609375 -403.086181640625 976.8663940429688 -385.0618896484375Q946.119140625 -367.03759765625 930.0286254882812 -336.07952880859375Q913.9381103515625 -305.1214599609375 906.64892578125 -261.518798828125L865.4921875 0.0ZM1295.47021484375 9.421630859375Q1251.9161376953125 9.421630859375 1215.205322265625 -10.2108154296875Q1178.4945068359375 -29.84326171875 1156.1390991210938 -63.264892578125Q1133.78369140625 -96.6865234375 1133.78369140625 -138.9757080078125Q1133.78369140625 -190.6865234375 1162.6390991210938 -222.75274658203125Q1191.4945068359375 -254.8189697265625 1252.4945068359375 -270.2406005859375Q1313.4945068359375 -285.6622314453125 1408.78369140625 -285.6622314453125H1489.0728759765625L1479.518798828125 -223.78369140625H1417.675537109375Q1348.84326171875 -223.78369140625 1308.637939453125 -216.77154541015625Q1268.4326171875 -209.7593994140625 1251.2637329101562 -192.59051513671875Q1234.0948486328125 -175.421630859375 1234.0948486328125 -145.2406005859375Q1234.0948486328125 -105.324462890625 1260.77587890625 -84.010986328125Q1287.4569091796875 -62.697509765625 1324.0595703125 -62.697509765625Q1358.373046875 -62.697509765625 1387.4094848632812 -77.78802490234375Q1416.4459228515625 -92.8785400390625 1436.7593994140625 -121.41497802734375Q1457.0728759765625 -149.951416015625 1462.9404296875 -189.578369140625L1482.2296142578125 -310.0242919921875Q1491.09716796875 -363.09716796875 1467.4404296875 -390.989013671875Q1443.78369140625 -418.880859375 1383.735107421875 -418.880859375Q1339.15673828125 -418.880859375 1298.235107421875 -406.73626708984375Q1257.3134765625 -394.5916748046875 1217.1810302734375 -368.0133056640625L1192.0728759765625 -439.5540771484375Q1216.4945068359375 -457.264892578125 1249.6931762695312 -470.12030029296875Q1282.891845703125 -482.9757080078125 1320.65673828125 -489.9757080078125Q1358.421630859375 -496.9757080078125 1395.6865234375 -496.9757080078125Q1468.90283203125 -496.9757080078125 1511.4447631835938 -469.85540771484375Q1553.9866943359375 -442.735107421875 1569.4083251953125 -394.90399169921875Q1584.8299560546875 -347.0728759765625 1574.8299560546875 -284.2296142578125L1529.6732177734375 0.0H1434.6512451171875L1451.2296142578125 -107.47021484375H1461.2296142578125Q1447.518798828125 -67.6026611328125 1421.4404296875 -41.5242919921875Q1395.362060546875 -15.4459228515625 1362.705322265625 -3.01214599609375Q1330.048583984375 9.421630859375 1295.47021484375 9.421630859375ZM1639.78369140625 180.0 1745.4945068359375 -487.5540771484375H1844.3597412109375L1829.2030029296875 -389.481201171875H1820.33544921875Q1838.0462646484375 -422.9271240234375 1864.4800415039062 -447.0838623046875Q1890.913818359375 -471.2406005859375 1925.4259643554688 -484.108154296875Q1959.9381103515625 -496.9757080078125 1999.96240234375 -496.9757080078125Q2056.540771484375 -496.9757080078125 2098.3299560546875 -471.62030029296875Q2140.119140625 -446.264892578125 2163.2637329101562 -399.0540771484375Q2186.4083251953125 -351.84326171875 2186.4083251953125 -286.84326171875Q2186.4083251953125 -205.578369140625 2157.3421020507812 -138.3675537109375Q2128.27587890625 -71.15673828125 2073.7096557617188 -30.8675537109375Q2019.1434326171875 9.421630859375 1941.5650634765625 9.421630859375Q1884.119140625 9.421630859375 1839.3178100585938 -18.87969970703125Q1794.5164794921875 -47.1810302734375 1777.5164794921875 -104.2296142578125H1785.9381103515625L1740.7813720703125 180.0ZM1925.794677734375 -69.384033203125Q1977.0 -69.384033203125 2012.1148071289062 -97.9866943359375Q2047.2296142578125 -126.58935546875 2065.8201293945312 -175.3487548828125Q2084.41064453125 -224.108154296875 2084.41064453125 -283.15673828125Q2084.41064453125 -349.09716796875 2052.4404296875 -383.63360595703125Q2020.47021484375 -418.1700439453125 1964.108154296875 -418.1700439453125Q1913.6136474609375 -418.1700439453125 1878.1434326171875 -389.5673828125Q1842.6732177734375 -360.9647216796875 1824.0827026367188 -312.705322265625Q1805.4921875 -264.4459228515625 1805.4921875 -204.3973388671875Q1805.4921875 -138.74609375 1837.46240234375 -104.0650634765625Q1869.4326171875 -69.384033203125 1925.794677734375 -69.384033203125ZM2501.5054931640625 9.421630859375Q2430.108154296875 9.421630859375 2377.6324462890625 -17.35540771484375Q2325.15673828125 -44.1324462890625 2296.6026611328125 -93.12030029296875Q2268.048583984375 -142.108154296875 2268.048583984375 -208.52978515625Q2268.048583984375 -289.0838623046875 2300.9580688476562 -354.1622314453125Q2333.8675537109375 -419.2406005859375 2393.421630859375 -458.108154296875Q2452.9757080078125 -496.9757080078125 2532.264892578125 -496.9757080078125Q2610.2406005859375 -496.9757080078125 2655.794677734375 -461.62030029296875Q2701.3487548828125 -426.264892578125 2717.981201171875 -368.77703857421875Q2734.6136474609375 -311.2891845703125 2726.0352783203125 -244.891845703125L2723.0352783203125 -221.205322265625H2347.5164794921875L2356.3597412109375 -283.0838623046875H2662.9647216796875L2645.3863525390625 -268.951416015625Q2651.9647216796875 -313.0 2642.2417602539062 -348.11480712890625Q2632.518798828125 -383.2296142578125 2605.705322265625 -404.39849853515625Q2578.891845703125 -425.5673828125 2531.264892578125 -425.5673828125Q2481.7703857421875 -425.5673828125 2448.4447631835938 -403.10931396484375Q2415.119140625 -380.6512451171875 2396.384033203125 -345.6810302734375Q2377.64892578125 -310.7108154296875 2371.070556640625 -271.8189697265625L2366.64892578125 -244.578369140625Q2358.070556640625 -191.2406005859375 2372.2935180664062 -151.981201171875Q2386.5164794921875 -112.7218017578125 2421.540771484375 -91.05291748046875Q2456.5650634765625 -69.384033203125 2508.74609375 -69.384033203125Q2553.90283203125 -69.384033203125 2593.5474243164062 -82.31781005859375Q2633.1920166015625 -95.2515869140625 2665.0595703125 -122.5650634765625L2693.4569091796875 -55.3134765625Q2659.324462890625 -24.15673828125 2607.5474243164062 -7.3675537109375Q2555.7703857421875 9.421630859375 2501.5054931640625 9.421630859375ZM2932.4945068359375 0.0 2799.9404296875 -487.5540771484375H2903.5164794921875L3002.6136474609375 -82.5274658203125H2974.3487548828125L3205.9647216796875 -487.5540771484375H3312.540771484375L3023.854248046875 0.0ZM3396.78369140625 -601.2296142578125 3413.891845703125 -706.167724609375H3531.2030029296875L3514.0948486328125 -601.2296142578125ZM3308.78369140625 0.0 3386.4945068359375 -487.5540771484375H3487.4921875L3409.7813720703125 0.0ZM3552.0728759765625 0.0 3629.78369140625 -487.5540771484375H3728.3597412109375L3711.4921875 -382.481201171875H3702.6246337890625Q3727.6246337890625 -437.5054931640625 3775.1367797851562 -467.2406005859375Q3822.64892578125 -496.9757080078125 3887.96240234375 -496.9757080078125Q3941.96240234375 -496.9757080078125 3978.46240234375 -475.12030029296875Q4014.96240234375 -453.264892578125 4030.46240234375 -408.34326171875Q4045.96240234375 -363.421630859375 4034.96240234375 -293.578369140625L3988.6732177734375 0.0H3887.675537109375L3933.9647216796875 -292.4459228515625Q3940.832275390625 -334.0728759765625 3933.8201293945312 -361.25390625Q3926.8079833984375 -388.4349365234375 3906.8499145507812 -402.23626708984375Q3886.891845703125 -416.03759765625 3852.1324462890625 -416.03759765625Q3807.9271240234375 -416.03759765625 3774.9569091796875 -397.15789794921875Q3741.9866943359375 -378.2781982421875 3722.3178100585938 -344.3079833984375Q3702.64892578125 -310.3377685546875 3695.070556640625 -263.2891845703125L3653.070556640625 0.0ZM4370.5054931640625 9.421630859375Q4299.108154296875 9.421630859375 4246.6324462890625 -17.35540771484375Q4194.15673828125 -44.1324462890625 4165.6026611328125 -93.12030029296875Q4137.048583984375 -142.108154296875 4137.048583984375 -208.52978515625Q4137.048583984375 -289.0838623046875 4169.958068847656 -354.1622314453125Q4202.8675537109375 -419.2406005859375 4262.421630859375 -458.108154296875Q4321.9757080078125 -496.9757080078125 4401.264892578125 -496.9757080078125Q4479.2406005859375 -496.9757080078125 4524.794677734375 -461.62030029296875Q4570.3487548828125 -426.264892578125 4586.981201171875 -368.77703857421875Q4603.6136474609375 -311.2891845703125 4595.0352783203125 -244.891845703125L4592.0352783203125 -221.205322265625H4216.5164794921875L4225.3597412109375 -283.0838623046875H4531.9647216796875L4514.3863525390625 -268.951416015625Q4520.9647216796875 -313.0 4511.241760253906 -348.11480712890625Q4501.518798828125 -383.2296142578125 4474.705322265625 -404.39849853515625Q4447.891845703125 -425.5673828125 4400.264892578125 -425.5673828125Q4350.7703857421875 -425.5673828125 4317.444763183594 -403.10931396484375Q4284.119140625 -380.6512451171875 4265.384033203125 -345.6810302734375Q4246.64892578125 -310.7108154296875 4240.070556640625 -271.8189697265625L4235.64892578125 -244.578369140625Q4227.070556640625 -191.2406005859375 4241.293518066406 -151.981201171875Q4255.5164794921875 -112.7218017578125 4290.540771484375 -91.05291748046875Q4325.5650634765625 -69.384033203125 4377.74609375 -69.384033203125Q4422.90283203125 -69.384033203125 4462.547424316406 -82.31781005859375Q4502.1920166015625 -95.2515869140625 4534.0595703125 -122.5650634765625L4562.4569091796875 -55.3134765625Q4528.324462890625 -24.15673828125 4476.547424316406 -7.3675537109375Q4424.7703857421875 9.421630859375 4370.5054931640625 9.421630859375Z"/></g><g fill="#849e50" transform="translate(44.533 261.495) scale(0.021886)"><path d="M298.5540771484375 9.421630859375Q247.5540771484375 9.421630859375 198.27703857421875 0.56622314453125Q149.0 -8.2891845703125 105.3675537109375 -27.2891845703125Q61.735107421875 -46.2891845703125 25.891845703125 -76.15673828125L65.2406005859375 -154.64892578125Q103.0838623046875 -126.4921875 142.07171630859375 -109.84759521484375Q181.0595703125 -93.2030029296875 222.20416259765625 -86.2030029296875Q263.3487548828125 -79.2030029296875 307.6622314453125 -79.2030029296875Q358.421630859375 -79.2030029296875 395.391845703125 -92.9381103515625Q432.362060546875 -106.6732177734375 453.03094482421875 -132.354248046875Q473.6998291015625 -158.0352783203125 473.6998291015625 -191.951416015625Q473.6998291015625 -216.84326171875 462.18768310546875 -236.51214599609375Q450.675537109375 -256.1810302734375 424.78369140625 -271.06072998046875Q398.891845703125 -285.9404296875 354.3973388671875 -295.3863525390625L248.2891845703125 -320.8079833984375Q177.0242919921875 -337.518798828125 134.6026611328125 -380.28369140625Q92.1810302734375 -423.048583984375 92.1810302734375 -498.4945068359375Q92.1810302734375 -548.47021484375 113.3134765625 -588.3134765625Q134.4459228515625 -628.15673828125 172.0 -656.4337768554688Q209.5540771484375 -684.7108154296875 258.608154296875 -699.5662231445312Q307.6622314453125 -714.421630859375 363.21630859375 -714.421630859375Q429.794677734375 -714.421630859375 495.9271240234375 -693.84326171875Q562.0595703125 -673.264892578125 610.4569091796875 -627.8189697265625L569.6865234375 -550.880859375Q524.9757080078125 -591.4835205078125 470.54193115234375 -608.6402587890625Q416.108154296875 -625.7969970703125 361.21630859375 -625.7969970703125Q313.4569091796875 -625.7969970703125 275.63128662109375 -610.772705078125Q237.8056640625 -595.7484130859375 216.4921875 -569.1336059570312Q195.1787109375 -542.518798828125 195.1787109375 -506.3134765625Q195.1787109375 -461.373046875 219.2030029296875 -439.0595703125Q243.227294921875 -416.74609375 289.9866943359375 -404.8785400390625L396.0948486328125 -379.4569091796875Q487.9866943359375 -358.8785400390625 532.3421020507812 -313.39068603515625Q576.697509765625 -267.90283203125 576.697509765625 -203.7703857421875Q576.697509765625 -151.373046875 554.854248046875 -111.3189697265625Q533.010986328125 -71.264892578125 494.5352783203125 -44.6324462890625Q456.0595703125 -18.0 405.93927001953125 -4.2891845703125Q355.8189697265625 9.421630859375 298.5540771484375 9.421630859375ZM656.0728759765625 0.0 733.78369140625 -487.5540771484375H832.3597412109375L814.4921875 -380.0595703125L804.4921875 -380.3487548828125Q831.913818359375 -438.5054931640625 877.2692260742188 -467.7406005859375Q922.6246337890625 -496.9757080078125 977.227294921875 -496.9757080078125Q1034.0948486328125 -496.9757080078125 1070.384033203125 -466.46356201171875Q1106.6732177734375 -435.951416015625 1116.64892578125 -376.5054931640625L1103.9381103515625 -381.0595703125Q1129.070556640625 -436.5054931640625 1175.5043334960938 -466.7406005859375Q1221.9381103515625 -496.9757080078125 1285.384033203125 -496.9757080078125Q1336.384033203125 -496.9757080078125 1371.4502563476562 -475.4757080078125Q1406.5164794921875 -453.9757080078125 1421.227294921875 -409.0540771484375Q1435.9381103515625 -364.1324462890625 1424.9381103515625 -293.578369140625L1378.64892578125 0.0H1277.6512451171875L1323.9404296875 -296.0242919921875Q1330.518798828125 -336.362060546875 1324.2958374023438 -362.89849853515625Q1318.0728759765625 -389.4349365234375 1299.9039916992188 -402.73626708984375Q1281.735107421875 -416.03759765625 1249.9757080078125 -416.03759765625Q1212.9271240234375 -416.03759765625 1183.74609375 -397.802490234375Q1154.5650634765625 -379.5673828125 1135.8961791992188 -345.59716796875Q1117.227294921875 -311.626953125 1109.3597412109375 -263.2891845703125L1067.3597412109375 0.0H966.362060546875L1013.6512451171875 -296.0242919921875Q1020.2296142578125 -336.362060546875 1014.0066528320312 -362.89849853515625Q1007.78369140625 -389.4349365234375 989.6148071289062 -402.73626708984375Q971.4459228515625 -416.03759765625 939.6865234375 -416.03759765625Q911.5054931640625 -416.03759765625 888.40283203125 -405.52545166015625Q865.3001708984375 -395.0133056640625 847.27587890625 -375.489013671875Q829.2515869140625 -355.9647216796875 816.9502563476562 -327.71746826171875Q804.64892578125 -299.47021484375 799.070556640625 -263.2891845703125L757.070556640625 0.0ZM1684.47021484375 9.421630859375Q1640.9161376953125 9.421630859375 1604.205322265625 -10.2108154296875Q1567.4945068359375 -29.84326171875 1545.1390991210938 -63.264892578125Q1522.78369140625 -96.6865234375 1522.78369140625 -138.9757080078125Q1522.78369140625 -190.6865234375 1551.6390991210938 -222.75274658203125Q1580.4945068359375 -254.8189697265625 1641.4945068359375 -270.2406005859375Q1702.4945068359375 -285.6622314453125 1797.78369140625 -285.6622314453125H1878.0728759765625L1868.518798828125 -223.78369140625H1806.675537109375Q1737.84326171875 -223.78369140625 1697.637939453125 -216.77154541015625Q1657.4326171875 -209.7593994140625 1640.2637329101562 -192.59051513671875Q1623.0948486328125 -175.421630859375 1623.0948486328125 -145.2406005859375Q1623.0948486328125 -105.324462890625 1649.77587890625 -84.010986328125Q1676.4569091796875 -62.697509765625 1713.0595703125 -62.697509765625Q1747.373046875 -62.697509765625 1776.4094848632812 -77.78802490234375Q1805.4459228515625 -92.8785400390625 1825.7593994140625 -121.41497802734375Q1846.0728759765625 -149.951416015625 1851.9404296875 -189.578369140625L1871.2296142578125 -310.0242919921875Q1880.09716796875 -363.09716796875 1856.4404296875 -390.989013671875Q1832.78369140625 -418.880859375 1772.735107421875 -418.880859375Q1728.15673828125 -418.880859375 1687.235107421875 -406.73626708984375Q1646.3134765625 -394.5916748046875 1606.1810302734375 -368.0133056640625L1581.0728759765625 -439.5540771484375Q1605.4945068359375 -457.264892578125 1638.6931762695312 -470.12030029296875Q1671.891845703125 -482.9757080078125 1709.65673828125 -489.9757080078125Q1747.421630859375 -496.9757080078125 1784.6865234375 -496.9757080078125Q1857.90283203125 -496.9757080078125 1900.4447631835938 -469.85540771484375Q1942.9866943359375 -442.735107421875 1958.4083251953125 -394.90399169921875Q1973.8299560546875 -347.0728759765625 1963.8299560546875 -284.2296142578125L1918.6732177734375 0.0H1823.6512451171875L1840.2296142578125 -107.47021484375H1850.2296142578125Q1836.518798828125 -67.6026611328125 1810.4404296875 -41.5242919921875Q1784.362060546875 -15.4459228515625 1751.705322265625 -3.01214599609375Q1719.048583984375 9.421630859375 1684.47021484375 9.421630859375ZM2057.0728759765625 0.0 2134.78369140625 -487.5540771484375H2233.3597412109375L2214.64892578125 -370.7108154296875H2204.3597412109375Q2222.64892578125 -424.5540771484375 2266.7151489257812 -458.62030029296875Q2310.7813720703125 -492.6865234375 2378.64892578125 -497.264892578125L2419.33544921875 -500.264892578125L2418.3597412109375 -413.929443359375L2351.2406005859375 -407.3753662109375Q2301.6136474609375 -403.086181640625 2270.8663940429688 -385.0618896484375Q2240.119140625 -367.03759765625 2224.0286254882812 -336.07952880859375Q2207.9381103515625 -305.1214599609375 2200.64892578125 -261.518798828125L2159.4921875 0.0ZM2672.010986328125 9.421630859375Q2611.637939453125 9.421630859375 2572.52978515625 -13.6324462890625Q2533.421630859375 -36.6865234375 2517.9337768554688 -77.6622314453125Q2502.4459228515625 -118.637939453125 2511.15673828125 -173.6136474609375L2548.9161376953125 -410.3267822265625H2454.048583984375L2466.4459228515625 -487.5540771484375H2561.0242919921875L2584.3134765625 -635.0H2685.3111572265625L2662.02197265625 -487.5540771484375H2813.2030029296875L2800.8056640625 -410.3267822265625H2649.6246337890625L2613.1544189453125 -181.90283203125Q2604.286865234375 -124.697509765625 2625.6544189453125 -99.884033203125Q2647.02197265625 -75.070556640625 2693.4921875 -75.070556640625Q2709.64892578125 -75.070556640625 2724.0827026367188 -78.3597412109375Q2738.5164794921875 -81.64892578125 2750.9381103515625 -85.64892578125L2758.5164794921875 -8.7108154296875Q2744.2515869140625 -0.578369140625 2719.5529174804688 4.421630859375Q2694.854248046875 9.421630859375 2672.010986328125 9.421630859375ZM3059.5054931640625 9.421630859375Q2988.108154296875 9.421630859375 2935.6324462890625 -17.35540771484375Q2883.15673828125 -44.1324462890625 2854.6026611328125 -93.12030029296875Q2826.048583984375 -142.108154296875 2826.048583984375 -208.52978515625Q2826.048583984375 -289.0838623046875 2858.9580688476562 -354.1622314453125Q2891.8675537109375 -419.2406005859375 2951.421630859375 -458.108154296875Q3010.9757080078125 -496.9757080078125 3090.264892578125 -496.9757080078125Q3168.2406005859375 -496.9757080078125 3213.794677734375 -461.62030029296875Q3259.3487548828125 -426.264892578125 3275.981201171875 -368.77703857421875Q3292.6136474609375 -311.2891845703125 3284.0352783203125 -244.891845703125L3281.0352783203125 -221.205322265625H2905.5164794921875L2914.3597412109375 -283.0838623046875H3220.9647216796875L3203.3863525390625 -268.951416015625Q3209.9647216796875 -313.0 3200.2417602539062 -348.11480712890625Q3190.518798828125 -383.2296142578125 3163.705322265625 -404.39849853515625Q3136.891845703125 -425.5673828125 3089.264892578125 -425.5673828125Q3039.7703857421875 -425.5673828125 3006.4447631835938 -403.10931396484375Q2973.119140625 -380.6512451171875 2954.384033203125 -345.6810302734375Q2935.64892578125 -310.7108154296875 2929.070556640625 -271.8189697265625L2924.64892578125 -244.578369140625Q2916.070556640625 -191.2406005859375 2930.2935180664062 -151.981201171875Q2944.5164794921875 -112.7218017578125 2979.540771484375 -91.05291748046875Q3014.5650634765625 -69.384033203125 3066.74609375 -69.384033203125Q3111.90283203125 -69.384033203125 3151.5474243164062 -82.31781005859375Q3191.1920166015625 -95.2515869140625 3223.0595703125 -122.5650634765625L3251.4569091796875 -55.3134765625Q3217.324462890625 -24.15673828125 3165.5474243164062 -7.3675537109375Q3113.7703857421875 9.421630859375 3059.5054931640625 9.421630859375ZM3354.0728759765625 0.0 3431.78369140625 -487.5540771484375H3530.3597412109375L3511.64892578125 -370.7108154296875H3501.3597412109375Q3519.64892578125 -424.5540771484375 3563.7151489257812 -458.62030029296875Q3607.7813720703125 -492.6865234375 3675.64892578125 -497.264892578125L3716.33544921875 -500.264892578125L3715.3597412109375 -413.929443359375L3648.2406005859375 -407.3753662109375Q3598.6136474609375 -403.086181640625 3567.8663940429688 -385.0618896484375Q3537.119140625 -367.03759765625 3521.0286254882812 -336.07952880859375Q3504.9381103515625 -305.1214599609375 3497.64892578125 -261.518798828125L3456.4921875 0.0ZM4001.78369140625 0.0 4113.78369140625 -705.0H4216.913818359375L4119.443603515625 -88.757080078125H4467.7218017578125L4453.90283203125 0.0ZM4779.5054931640625 9.421630859375Q4708.108154296875 9.421630859375 4655.6324462890625 -17.35540771484375Q4603.15673828125 -44.1324462890625 4574.6026611328125 -93.12030029296875Q4546.048583984375 -142.108154296875 4546.048583984375 -208.52978515625Q4546.048583984375 -289.0838623046875 4578.958068847656 -354.1622314453125Q4611.8675537109375 -419.2406005859375 4671.421630859375 -458.108154296875Q4730.9757080078125 -496.9757080078125 4810.264892578125 -496.9757080078125Q4888.2406005859375 -496.9757080078125 4933.794677734375 -461.62030029296875Q4979.3487548828125 -426.264892578125 4995.981201171875 -368.77703857421875Q5012.6136474609375 -311.2891845703125 5004.0352783203125 -244.891845703125L5001.0352783203125 -221.205322265625H4625.5164794921875L4634.3597412109375 -283.0838623046875H4940.9647216796875L4923.3863525390625 -268.951416015625Q4929.9647216796875 -313.0 4920.241760253906 -348.11480712890625Q4910.518798828125 -383.2296142578125 4883.705322265625 -404.39849853515625Q4856.891845703125 -425.5673828125 4809.264892578125 -425.5673828125Q4759.7703857421875 -425.5673828125 4726.444763183594 -403.10931396484375Q4693.119140625 -380.6512451171875 4674.384033203125 -345.6810302734375Q4655.64892578125 -310.7108154296875 4649.070556640625 -271.8189697265625L4644.64892578125 -244.578369140625Q4636.070556640625 -191.2406005859375 4650.293518066406 -151.981201171875Q4664.5164794921875 -112.7218017578125 4699.540771484375 -91.05291748046875Q4734.5650634765625 -69.384033203125 4786.74609375 -69.384033203125Q4831.90283203125 -69.384033203125 4871.547424316406 -82.31781005859375Q4911.1920166015625 -95.2515869140625 4943.0595703125 -122.5650634765625L4971.4569091796875 -55.3134765625Q4937.324462890625 -24.15673828125 4885.547424316406 -7.3675537109375Q4833.7703857421875 9.421630859375 4779.5054931640625 9.421630859375ZM5293.6622314453125 189.421630859375Q5223.9757080078125 189.421630859375 5167.578369140625 170.40948486328125Q5111.1810302734375 151.3973388671875 5066.78369140625 119.6865234375L5099.2891845703125 47.72412109375Q5128.578369140625 66.880859375 5156.5 81.10382080078125Q5184.421630859375 95.3267822265625 5214.777038574219 102.97137451171875Q5245.1324462890625 110.615966796875 5280.2891845703125 110.615966796875Q5342.6026611328125 110.615966796875 5381.3377685546875 80.86871337890625Q5420.0728759765625 51.1214599609375 5430.6512451171875 -13.5054931640625L5447.3863525390625 -119.4945068359375L5456.09716796875 -118.4945068359375Q5439.8079833984375 -85.048583984375 5413.374206542969 -60.891845703125Q5386.9404296875 -36.735107421875 5352.428283691406 -24.22296142578125Q5317.9161376953125 -11.7108154296875 5277.6026611328125 -11.7108154296875Q5219.1810302734375 -11.7108154296875 5175.47021484375 -35.85540771484375Q5131.7593994140625 -60.0 5107.403991699219 -105.2108154296875Q5083.048583984375 -150.421630859375 5083.048583984375 -211.5540771484375Q5083.048583984375 -267.9757080078125 5099.97021484375 -319.6865234375Q5116.891845703125 -371.3973388671875 5148.958068847656 -411.04193115234375Q5181.0242919921875 -450.6865234375 5226.735107421875 -473.83111572265625Q5272.4459228515625 -496.9757080078125 5330.3134765625 -496.9757080078125Q5389.47021484375 -496.9757080078125 5434.271545410156 -468.67437744140625Q5479.0728759765625 -440.373046875 5496.0728759765625 -383.324462890625L5488.362060546875 -384.74609375L5504.518798828125 -487.5540771484375H5603.384033203125L5529.227294921875 -19.0595703125Q5518.5164794921875 49.4945068359375 5488.817810058594 95.7593994140625Q5459.119140625 142.0242919921875 5410.510986328125 165.72296142578125Q5361.90283203125 189.421630859375 5293.6622314453125 189.421630859375ZM5306.3487548828125 -90.5164794921875Q5358.5540771484375 -90.5164794921875 5394.379699707031 -118.619140625Q5430.205322265625 -146.7218017578125 5449.1512451171875 -193.12579345703125Q5468.09716796875 -239.52978515625 5468.09716796875 -293.15673828125Q5468.8079833984375 -351.8079833984375 5436.482360839844 -384.989013671875Q5404.15673828125 -418.1700439453125 5345.373046875 -418.1700439453125Q5294.167724609375 -418.1700439453125 5258.197509765625 -390.0673828125Q5222.227294921875 -361.9647216796875 5203.9921875 -316.06072998046875Q5185.757080078125 -270.15673828125 5185.0462646484375 -216.52978515625Q5184.33544921875 -156.8785400390625 5216.3056640625 -123.697509765625Q5248.27587890625 -90.5164794921875 5306.3487548828125 -90.5164794921875ZM5832.47021484375 9.421630859375Q5788.9161376953125 9.421630859375 5752.205322265625 -10.2108154296875Q5715.4945068359375 -29.84326171875 5693.139099121094 -63.264892578125Q5670.78369140625 -96.6865234375 5670.78369140625 -138.9757080078125Q5670.78369140625 -190.6865234375 5699.639099121094 -222.75274658203125Q5728.4945068359375 -254.8189697265625 5789.4945068359375 -270.2406005859375Q5850.4945068359375 -285.6622314453125 5945.78369140625 -285.6622314453125H6026.0728759765625L6016.518798828125 -223.78369140625H5954.675537109375Q5885.84326171875 -223.78369140625 5845.637939453125 -216.77154541015625Q5805.4326171875 -209.7593994140625 5788.263732910156 -192.59051513671875Q5771.0948486328125 -175.421630859375 5771.0948486328125 -145.2406005859375Q5771.0948486328125 -105.324462890625 5797.77587890625 -84.010986328125Q5824.4569091796875 -62.697509765625 5861.0595703125 -62.697509765625Q5895.373046875 -62.697509765625 5924.409484863281 -77.78802490234375Q5953.4459228515625 -92.8785400390625 5973.7593994140625 -121.41497802734375Q5994.0728759765625 -149.951416015625 5999.9404296875 -189.578369140625L6019.2296142578125 -310.0242919921875Q6028.09716796875 -363.09716796875 6004.4404296875 -390.989013671875Q5980.78369140625 -418.880859375 5920.735107421875 -418.880859375Q5876.15673828125 -418.880859375 5835.235107421875 -406.73626708984375Q5794.3134765625 -394.5916748046875 5754.1810302734375 -368.0133056640625L5729.0728759765625 -439.5540771484375Q5753.4945068359375 -457.264892578125 5786.693176269531 -470.12030029296875Q5819.891845703125 -482.9757080078125 5857.65673828125 -489.9757080078125Q5895.421630859375 -496.9757080078125 5932.6865234375 -496.9757080078125Q6005.90283203125 -496.9757080078125 6048.444763183594 -469.85540771484375Q6090.9866943359375 -442.735107421875 6106.4083251953125 -394.90399169921875Q6121.8299560546875 -347.0728759765625 6111.8299560546875 -284.2296142578125L6066.6732177734375 0.0H5971.6512451171875L5988.2296142578125 -107.47021484375H5998.2296142578125Q5984.518798828125 -67.6026611328125 5958.4404296875 -41.5242919921875Q5932.362060546875 -15.4459228515625 5899.705322265625 -3.01214599609375Q5867.048583984375 9.421630859375 5832.47021484375 9.421630859375ZM6365.637939453125 9.421630859375Q6287.2891845703125 9.421630859375 6252.6026611328125 -35.33111572265625Q6217.9161376953125 -80.0838623046875 6231.3377685546875 -166.4569091796875L6316.78369140625 -705.0H6417.7813720703125L6332.33544921875 -167.167724609375Q6327.757080078125 -134.9866943359375 6332.901672363281 -114.2515869140625Q6338.0462646484375 -93.5164794921875 6354.558410644531 -83.9381103515625Q6371.070556640625 -74.3597412109375 6397.8056640625 -74.3597412109375Q6409.384033203125 -74.3597412109375 6420.6732177734375 -75.8597412109375Q6431.96240234375 -77.3597412109375 6443.540771484375 -78.9381103515625L6428.854248046875 1.0Q6415.010986328125 5.0 6398.312316894531 7.2108154296875Q6381.6136474609375 9.421630859375 6365.637939453125 9.421630859375ZM6785.78369140625 0.0 6897.78369140625 -705.0H7113.373046875Q7277.0352783203125 -705.0 7365.7218017578125 -627.0121459960938Q7454.4083251953125 -549.0242919921875 7455.119140625 -407.47021484375Q7455.119140625 -322.47021484375 7430.842102050781 -248.53643798828125Q7406.5650634765625 -174.6026611328125 7356.788024902344 -118.87969970703125Q7307.010986328125 -63.15673828125 7231.8001708984375 -31.578369140625Q7156.58935546875 0.0 7053.7218017578125 0.0ZM6902.7327880859375 -86.6246337890625H7055.7218017578125Q7133.2406005859375 -86.6246337890625 7188.722961425781 -111.29351806640625Q7244.205322265625 -135.96240234375 7279.163391113281 -179.7218017578125Q7314.1214599609375 -223.481201171875 7330.489013671875 -281.52978515625Q7346.8565673828125 -339.578369140625 7346.8565673828125 -406.048583984375Q7346.8565673828125 -509.5673828125 7288.163391113281 -563.9713745117188Q7229.47021484375 -618.3753662109375 7113.0838623046875 -618.3753662109375H6987.0948486328125ZM7753.637939453125 9.421630859375Q7685.3973388671875 9.421630859375 7636.066223144531 -17.0Q7586.735107421875 -43.421630859375 7560.391845703125 -92.40948486328125Q7534.048583984375 -141.3973388671875 7534.048583984375 -207.8189697265625Q7534.048583984375 -271.5054931640625 7553.458068847656 -324.36090087890625Q7572.8675537109375 -377.21630859375 7608.487854003906 -416.0838623046875Q7644.108154296875 -454.951416015625 7691.951416015625 -475.96356201171875Q7739.794677734375 -496.9757080078125 7797.373046875 -496.9757080078125Q7865.90283203125 -496.9757080078125 7915.08935546875 -470.5540771484375Q7964.27587890625 -444.1324462890625 7990.619140625 -395.5Q8016.96240234375 -346.8675537109375 8016.96240234375 -279.735107421875Q8016.96240234375 -216.048583984375 7997.552917480469 -163.19317626953125Q7978.1434326171875 -110.3377685546875 7942.523132324219 -71.47021484375Q7906.90283203125 -32.6026611328125 7859.0595703125 -11.59051513671875Q7811.21630859375 9.421630859375 7753.637939453125 9.421630859375ZM7756.3487548828125 -69.384033203125Q7807.5540771484375 -69.384033203125 7842.668884277344 -97.9866943359375Q7877.78369140625 -126.58935546875 7896.374206542969 -175.3487548828125Q7914.9647216796875 -224.108154296875 7914.9647216796875 -283.15673828125Q7914.9647216796875 -349.09716796875 7882.9945068359375 -383.63360595703125Q7851.0242919921875 -418.1700439453125 7794.6622314453125 -418.1700439453125Q7744.167724609375 -418.1700439453125 7708.697509765625 -389.5673828125Q7673.227294921875 -360.9647216796875 7654.636779785156 -312.705322265625Q7636.0462646484375 -264.4459228515625 7636.0462646484375 -204.3973388671875Q7636.0462646484375 -138.74609375 7668.0164794921875 -104.0650634765625Q7699.9866943359375 -69.384033203125 7756.3487548828125 -69.384033203125ZM8321.637939453125 9.421630859375Q8246.818969726562 9.421630859375 8197.632446289062 -18.14459228515625Q8148.4459228515625 -45.7108154296875 8123.891845703125 -95.34326171875Q8099.3377685546875 -144.9757080078125 8099.3377685546875 -209.8189697265625Q8099.3377685546875 -263.52978515625 8115.114807128906 -315.02978515625Q8130.891845703125 -366.52978515625 8163.590515136719 -407.46356201171875Q8196.289184570312 -448.3973388671875 8247.054077148438 -472.6865234375Q8297.818969726562 -496.9757080078125 8367.083862304688 -496.9757080078125Q8415.794677734375 -496.9757080078125 8460.071716308594 -481.608154296875Q8504.348754882812 -466.2406005859375 8531.481201171875 -440.0838623046875L8497.6865234375 -368.989013671875Q8473.951416015625 -392.302490234375 8441.873046875 -404.52545166015625Q8409.794677734375 -416.7484130859375 8372.192016601562 -416.7484130859375Q8326.300170898438 -416.7484130859375 8293.986694335938 -399.15789794921875Q8261.673217773438 -381.5673828125 8241.582702636719 -351.4647216796875Q8221.4921875 -321.362060546875 8212.124633789062 -285.03643798828125Q8202.757080078125 -248.7108154296875 8202.757080078125 -210.52978515625Q8202.757080078125 -147.4569091796875 8233.570556640625 -109.13128662109375Q8264.384033203125 -70.8056640625 8335.010986328125 -70.8056640625Q8364.456909179688 -70.8056640625 8397.258239746094 -82.52862548828125Q8430.0595703125 -94.2515869140625 8457.505493164062 -118.27587890625L8483.613647460938 -45.1810302734375Q8464.613647460938 -28.3134765625 8437.547424316406 -15.87969970703125Q8410.481201171875 -3.4459228515625 8380.414978027344 2.98785400390625Q8350.348754882812 9.421630859375 8321.637939453125 9.421630859375ZM8730.494506835938 9.421630859375Q8678.494506835938 9.421630859375 8641.78369140625 -12.43377685546875Q8605.072875976562 -34.2891845703125 8590.072875976562 -79.56622314453125Q8575.072875976562 -124.84326171875 8585.78369140625 -194.6865234375L8632.072875976562 -487.5540771484375H8733.070556640625L8686.781372070312 -195.108154296875Q8680.203002929688 -154.1920166015625 8686.570556640625 -126.65557861328125Q8692.938110351562 -99.119140625 8713.251586914062 -85.6732177734375Q8733.565063476562 -72.227294921875 8766.324462890625 -72.227294921875Q8808.52978515625 -72.227294921875 8840.0 -91.10699462890625Q8871.47021484375 -109.9866943359375 8891.849914550781 -144.31231689453125Q8912.229614257812 -178.637939453125 8919.09716796875 -224.9757080078125L8960.386352539062 -487.5540771484375H9061.384033203125L8984.384033203125 0.0H8885.807983398438L8901.964721679688 -105.0728759765625H8911.543090820312Q8887.121459960938 -50.7593994140625 8839.964721679688 -20.66888427734375Q8792.807983398438 9.421630859375 8730.494506835938 9.421630859375ZM9128.072875976562 0.0 9205.78369140625 -487.5540771484375H9304.359741210938L9286.4921875 -380.0595703125L9276.4921875 -380.3487548828125Q9303.913818359375 -438.5054931640625 9349.269226074219 -467.7406005859375Q9394.624633789062 -496.9757080078125 9449.227294921875 -496.9757080078125Q9506.094848632812 -496.9757080078125 9542.384033203125 -466.46356201171875Q9578.673217773438 -435.951416015625 9588.64892578125 -376.5054931640625L9575.938110351562 -381.0595703125Q9601.070556640625 -436.5054931640625 9647.504333496094 -466.7406005859375Q9693.938110351562 -496.9757080078125 9757.384033203125 -496.9757080078125Q9808.384033203125 -496.9757080078125 9843.450256347656 -475.4757080078125Q9878.516479492188 -453.9757080078125 9893.227294921875 -409.0540771484375Q9907.938110351562 -364.1324462890625 9896.938110351562 -293.578369140625L9850.64892578125 0.0H9749.651245117188L9795.9404296875 -296.0242919921875Q9802.518798828125 -336.362060546875 9796.295837402344 -362.89849853515625Q9790.072875976562 -389.4349365234375 9771.903991699219 -402.73626708984375Q9753.735107421875 -416.03759765625 9721.975708007812 -416.03759765625Q9684.927124023438 -416.03759765625 9655.74609375 -397.802490234375Q9626.565063476562 -379.5673828125 9607.896179199219 -345.59716796875Q9589.227294921875 -311.626953125 9581.359741210938 -263.2891845703125L9539.359741210938 0.0H9438.362060546875L9485.651245117188 -296.0242919921875Q9492.229614257812 -336.362060546875 9486.006652832031 -362.89849853515625Q9479.78369140625 -389.4349365234375 9461.614807128906 -402.73626708984375Q9443.445922851562 -416.03759765625 9411.6865234375 -416.03759765625Q9383.505493164062 -416.03759765625 9360.40283203125 -405.52545166015625Q9337.300170898438 -395.0133056640625 9319.27587890625 -375.489013671875Q9301.251586914062 -355.9647216796875 9288.950256347656 -327.71746826171875Q9276.64892578125 -299.47021484375 9271.070556640625 -263.2891845703125L9229.070556640625 0.0ZM10234.505493164062 9.421630859375Q10163.108154296875 9.421630859375 10110.632446289062 -17.35540771484375Q10058.15673828125 -44.1324462890625 10029.602661132812 -93.12030029296875Q10001.048583984375 -142.108154296875 10001.048583984375 -208.52978515625Q10001.048583984375 -289.0838623046875 10033.958068847656 -354.1622314453125Q10066.867553710938 -419.2406005859375 10126.421630859375 -458.108154296875Q10185.975708007812 -496.9757080078125 10265.264892578125 -496.9757080078125Q10343.240600585938 -496.9757080078125 10388.794677734375 -461.62030029296875Q10434.348754882812 -426.264892578125 10450.981201171875 -368.77703857421875Q10467.613647460938 -311.2891845703125 10459.035278320312 -244.891845703125L10456.035278320312 -221.205322265625H10080.516479492188L10089.359741210938 -283.0838623046875H10395.964721679688L10378.386352539062 -268.951416015625Q10384.964721679688 -313.0 10375.241760253906 -348.11480712890625Q10365.518798828125 -383.2296142578125 10338.705322265625 -404.39849853515625Q10311.891845703125 -425.5673828125 10264.264892578125 -425.5673828125Q10214.770385742188 -425.5673828125 10181.444763183594 -403.10931396484375Q10148.119140625 -380.6512451171875 10129.384033203125 -345.6810302734375Q10110.64892578125 -310.7108154296875 10104.070556640625 -271.8189697265625L10099.64892578125 -244.578369140625Q10091.070556640625 -191.2406005859375 10105.293518066406 -151.981201171875Q10119.516479492188 -112.7218017578125 10154.540771484375 -91.05291748046875Q10189.565063476562 -69.384033203125 10241.74609375 -69.384033203125Q10286.90283203125 -69.384033203125 10326.547424316406 -82.31781005859375Q10366.192016601562 -95.2515869140625 10398.0595703125 -122.5650634765625L10426.456909179688 -55.3134765625Q10392.324462890625 -24.15673828125 10340.547424316406 -7.3675537109375Q10288.770385742188 9.421630859375 10234.505493164062 9.421630859375ZM10529.072875976562 0.0 10606.78369140625 -487.5540771484375H10705.359741210938L10688.4921875 -382.481201171875H10679.624633789062Q10704.624633789062 -437.5054931640625 10752.136779785156 -467.2406005859375Q10799.64892578125 -496.9757080078125 10864.96240234375 -496.9757080078125Q10918.96240234375 -496.9757080078125 10955.46240234375 -475.12030029296875Q10991.96240234375 -453.264892578125 11007.46240234375 -408.34326171875Q11022.96240234375 -363.421630859375 11011.96240234375 -293.578369140625L10965.673217773438 0.0H10864.675537109375L10910.964721679688 -292.4459228515625Q10917.832275390625 -334.0728759765625 10910.820129394531 -361.25390625Q10903.807983398438 -388.4349365234375 10883.849914550781 -402.23626708984375Q10863.891845703125 -416.03759765625 10829.132446289062 -416.03759765625Q10784.927124023438 -416.03759765625 10751.956909179688 -397.15789794921875Q10718.986694335938 -378.2781982421875 10699.317810058594 -344.3079833984375Q10679.64892578125 -310.3377685546875 10672.070556640625 -263.2891845703125L10630.070556640625 0.0ZM11320.010986328125 9.421630859375Q11259.637939453125 9.421630859375 11220.52978515625 -13.6324462890625Q11181.421630859375 -36.6865234375 11165.933776855469 -77.6622314453125Q11150.445922851562 -118.637939453125 11159.15673828125 -173.6136474609375L11196.916137695312 -410.3267822265625H11102.048583984375L11114.445922851562 -487.5540771484375H11209.024291992188L11232.3134765625 -635.0H11333.311157226562L11310.02197265625 -487.5540771484375H11461.203002929688L11448.8056640625 -410.3267822265625H11297.624633789062L11261.154418945312 -181.90283203125Q11252.286865234375 -124.697509765625 11273.654418945312 -99.884033203125Q11295.02197265625 -75.070556640625 11341.4921875 -75.070556640625Q11357.64892578125 -75.070556640625 11372.082702636719 -78.3597412109375Q11386.516479492188 -81.64892578125 11398.938110351562 -85.64892578125L11406.516479492188 -8.7108154296875Q11392.251586914062 -0.578369140625 11367.552917480469 4.421630859375Q11342.854248046875 9.421630859375 11320.010986328125 9.421630859375ZM11662.264892578125 9.421630859375Q11602.0 9.421630859375 11549.524291992188 -6.3675537109375Q11497.048583984375 -22.15673828125 11462.362060546875 -50.15673828125L11496.735107421875 -117.27587890625Q11520.735107421875 -99.4083251953125 11547.867553710938 -87.76373291015625Q11575.0 -76.119140625 11604.277038574219 -70.26373291015625Q11633.554077148438 -64.4083251953125 11663.132446289062 -64.4083251953125Q11713.891845703125 -64.4083251953125 11741.928283691406 -84.07720947265625Q11769.964721679688 -103.74609375 11769.964721679688 -137.951416015625Q11769.964721679688 -160.84326171875 11754.729614257812 -175.51214599609375Q11739.494506835938 -190.1810302734375 11710.181030273438 -197.048583984375L11616.735107421875 -218.0728759765625Q11564.626953125 -229.362060546875 11534.78369140625 -261.42828369140625Q11504.9404296875 -293.4945068359375 11504.9404296875 -340.7593994140625Q11504.9404296875 -384.891845703125 11529.717468261719 -420.09051513671875Q11554.494506835938 -455.2891845703125 11601.536437988281 -476.1324462890625Q11648.578369140625 -496.9757080078125 11713.662231445312 -496.9757080078125Q11746.240600585938 -496.9757080078125 11778.451416015625 -490.04193115234375Q11810.662231445312 -483.108154296875 11839.005493164062 -469.88519287109375Q11867.348754882812 -456.6622314453125 11887.324462890625 -437.373046875L11854.951416015625 -371.25390625Q11825.108154296875 -397.6998291015625 11787.831115722656 -410.42279052734375Q11750.554077148438 -423.145751953125 11709.108154296875 -423.145751953125Q11656.637939453125 -423.145751953125 11627.312316894531 -402.0430908203125Q11597.986694335938 -380.9404296875 11597.986694335938 -346.0242919921875Q11597.986694335938 -324.84326171875 11611.221801757812 -309.52978515625Q11624.456909179688 -294.21630859375 11652.637939453125 -287.7703857421875L11746.083862304688 -266.74609375Q11802.324462890625 -253.74609375 11832.667724609375 -223.25823974609375Q11863.010986328125 -192.7703857421875 11863.010986328125 -145.21630859375Q11863.010986328125 -96.52978515625 11838.023132324219 -61.9757080078125Q11813.035278320312 -27.421630859375 11767.704162597656 -9.0Q11722.373046875 9.421630859375 11662.264892578125 9.421630859375Z"/></g></svg>